<?xml version="1.0" standalone="no"?>
<!DOCTYPE svg PUBLIC "-//W3C//DTD SVG 20010904//EN"
 "http://www.w3.org/TR/2001/REC-SVG-20010904/DTD/svg10.dtd">
<svg version="1.0" xmlns="http://www.w3.org/2000/svg"
 width="300.000000pt" height="300.000000pt" viewBox="0 0 300.000000 300.000000"
 preserveAspectRatio="xMidYMid meet">
<metadata>
Created by potrace 1.11, written by Peter Selinger 2001-2013
</metadata>
<g transform="translate(0.000000,300.000000) scale(0.100000,-0.100000)"
fill="#000000" stroke="none">
<path d="M0 2783 l1 -218 110 -150 c204 -278 213 -296 189 -408 -14 -68 -40
-107 -151 -228 -47 -52 -100 -110 -118 -130 l-31 -37 0 -806 0 -806 822 0
c452 0 818 3 815 7 -4 3 3 11 16 17 16 9 21 19 19 38 -3 20 2 27 23 32 15 4
35 4 46 1 10 -4 19 -2 19 3 0 5 14 6 31 4 25 -4 30 -2 24 9 -7 11 -6 12 6 3 8
-6 30 -12 49 -12 19 -1 59 -6 89 -12 29 -5 70 -10 90 -10 32 1 34 2 16 12 -11
6 -21 12 -23 13 -7 6 12 35 23 35 7 0 32 11 55 24 24 14 50 21 62 18 14 -3 19
-1 14 6 -5 8 0 12 14 12 11 0 37 7 58 17 20 9 41 15 46 14 5 -1 12 2 15 6 3 4
28 26 56 48 56 45 108 101 145 154 35 51 90 161 90 179 0 9 -12 -7 -26 -36
-14 -29 -30 -50 -35 -46 -5 3 -9 -1 -9 -9 0 -8 -7 -14 -16 -13 -9 0 -19 -5
-22 -13 -3 -10 0 -12 11 -8 11 4 14 2 10 -8 -3 -8 -10 -12 -17 -8 -6 4 -21 6
-33 4 -13 -1 -23 3 -23 9 0 6 6 10 13 8 6 -2 13 2 14 7 2 6 -7 10 -18 10 -11
0 -32 11 -45 24 l-25 24 22 23 c18 19 20 26 9 39 -18 21 -33 19 -25 -5 8 -26
-19 -38 -42 -19 -15 12 -16 11 -11 -9 5 -17 2 -22 -13 -22 -12 0 -16 -5 -13
-15 4 -9 0 -15 -8 -15 -8 0 -23 -9 -33 -20 -13 -14 -25 -18 -48 -13 -23 5 -28
3 -22 -7 5 -9 4 -11 -4 -6 -6 4 -18 0 -27 -8 -8 -9 -26 -16 -39 -16 -19 0 -22
4 -18 22 5 22 4 22 -16 -2 -20 -25 -21 -25 -21 -3 0 18 -5 21 -27 17 -16 -2
-35 -7 -43 -11 -24 -10 -51 -9 -107 3 -43 9 -53 9 -57 -3 -4 -11 -10 -11 -26
-3 -11 6 -25 8 -30 5 -6 -3 -10 -1 -10 5 0 7 -6 10 -14 7 -7 -3 -18 -1 -23 4
-13 13 -43 1 -43 -17 0 -8 -4 -14 -10 -14 -5 0 -10 7 -10 15 0 17 -16 20 -25
5 -3 -6 -16 1 -29 15 -18 19 -25 22 -35 12 -10 -9 -12 -7 -11 13 4 45 1 55
-11 43 -17 -17 -47 19 -44 50 2 15 0 26 -3 25 -18 -3 -42 16 -42 34 0 15 -5
19 -19 15 -15 -3 -17 0 -13 17 3 11 13 26 21 33 14 11 14 12 -1 13 -9 0 -23
-9 -31 -20 -8 -11 -17 -17 -20 -13 -4 3 -7 -5 -7 -20 0 -14 6 -28 13 -30 8 -4
8 -6 0 -6 -8 -1 -7 -13 3 -46 7 -26 9 -45 4 -45 -6 0 -10 4 -10 10 0 5 -11 12
-25 16 -14 3 -23 10 -20 14 3 4 -3 11 -12 14 -15 6 -15 8 -3 16 13 8 13 10 -1
10 -11 0 -25 24 -43 73 -14 39 -26 77 -26 83 0 7 -7 34 -15 60 -8 27 -19 75
-26 107 -8 45 -13 56 -23 47 -26 -21 -38 14 -31 87 4 40 2 79 -4 95 -6 15 -16
77 -22 138 -11 98 -11 113 3 127 14 14 20 13 62 -12 41 -24 58 -28 139 -29 51
0 128 2 172 7 79 7 79 7 47 -9 -44 -23 -34 -29 14 -9 76 31 125 97 165 220 26
81 41 102 78 110 53 11 78 -9 122 -97 83 -167 133 -219 208 -218 22 1 20 3
-13 15 -21 7 -42 17 -47 22 -4 4 49 9 119 9 118 1 241 19 304 43 33 12 62 43
84 89 l16 34 19 -28 c10 -16 21 -41 25 -56 7 -34 9 -34 46 -3 16 14 40 28 54
31 29 7 74 -19 81 -47 5 -16 15 -19 64 -19 l59 0 0 225 0 226 -37 -5 -38 -5
40 13 40 14 -37 1 c-20 1 -40 -4 -43 -9 -4 -7 -24 -8 -53 -4 -44 7 -46 6 -32
-11 14 -16 12 -17 -19 -10 -24 5 -31 4 -27 -4 8 -12 -21 -11 -41 2 -10 6 -13
-6 -14 -50 -1 -32 -4 -49 -6 -38 -13 52 -40 72 -112 83 -80 14 -285 15 -349 3
-23 -5 -45 -5 -47 0 -3 4 21 10 52 14 32 3 76 9 98 12 38 5 39 6 15 15 -14 5
-47 7 -75 3 -27 -3 -86 -9 -130 -11 -62 -5 -89 -11 -117 -30 -21 -13 -38 -28
-38 -33 0 -4 -25 -20 -57 -35 -50 -25 -63 -27 -115 -22 -62 7 -103 22 -126 43
-36 34 -72 39 -249 31 -80 -4 -95 -7 -127 -31 -20 -15 -54 -34 -77 -42 l-41
-15 5 48 c11 113 30 181 77 274 26 53 51 94 54 91 3 -4 6 4 6 17 0 15 26 48
78 100 100 100 138 114 309 115 71 0 119 4 115 9 -3 5 3 6 13 2 10 -4 25 -1
34 8 9 8 30 15 46 17 25 2 238 -12 255 -16 3 -1 18 -7 33 -13 16 -7 31 -12 34
-12 3 0 42 -25 88 -55 80 -53 149 -127 174 -185 6 -14 20 -38 31 -55 11 -16
30 -51 41 -77 12 -27 25 -48 30 -48 5 0 6 -6 3 -14 -3 -7 2 -16 11 -20 10 -3
15 -12 11 -21 -3 -8 0 -15 5 -15 7 0 9 -11 6 -25 -3 -16 0 -24 7 -22 6 2 14
21 17 43 3 21 7 30 8 20 1 -18 7 -18 84 -13 45 4 106 7 135 7 l52 0 0 35 0 35
-127 -6 c-99 -6 -131 -11 -140 -23 -11 -14 -12 -12 -13 14 -1 17 -3 48 -5 70
-2 22 -4 60 -5 85 -2 42 -13 76 -47 143 -8 15 -12 34 -9 42 2 7 1 15 -4 17
-14 5 -20 92 -7 100 6 4 -7 5 -29 4 -21 -2 -29 -1 -16 1 25 5 30 23 5 23 -13
0 -12 3 6 19 l21 19 -27 7 c-17 5 -23 9 -14 13 10 3 7 8 -10 18 -13 7 -18 13
-11 14 10 0 9 4 -3 16 -9 9 -14 23 -11 31 3 8 1 11 -4 8 -6 -4 -10 6 -11 22
l-1 28 -7 -25 c-4 -15 -3 -28 3 -32 16 -11 -6 -9 -24 2 -8 5 -11 12 -7 16 11
11 -26 64 -44 64 -9 0 -19 7 -23 15 -3 8 -12 12 -21 9 -8 -3 -15 -1 -15 5 0
16 -90 53 -112 48 -11 -3 -18 0 -18 9 0 17 -30 33 -49 26 -8 -3 -11 0 -7 7 7
11 -4 15 -36 12 -10 -1 -18 3 -18 10 0 7 -10 9 -25 7 -13 -3 -22 -1 -19 3 3 5
-3 9 -12 9 -16 0 -15 2 2 22 10 12 13 18 7 14 -7 -4 -13 -2 -13 3 0 8 -318 11
-1050 11 l-1050 0 0 -217z m1984 168 c4 -5 -3 -7 -14 -4 -23 6 -26 13 -6 13 8
0 17 -4 20 -9z m95 -7 c2 -2 -16 -4 -40 -4 -31 0 -40 3 -29 10 13 8 57 4 69
-6z m811 -964 c12 -8 11 -10 -7 -10 -13 0 -23 5 -23 10 0 13 11 13 30 0z
m-455 -45 c11 -4 28 -15 38 -23 9 -8 17 -11 17 -6 0 14 -14 30 -30 37 -8 4 3
4 25 1 90 -13 129 -74 128 -201 -1 -91 -20 -144 -63 -175 -60 -44 -341 -75
-407 -46 -76 34 -165 201 -110 206 7 0 22 4 35 7 18 6 21 4 16 -10 -5 -12 -2
-16 12 -15 45 5 66 0 61 -14 -4 -10 -1 -13 9 -9 10 4 14 13 10 28 -3 12 0 30
8 40 13 18 15 17 46 -5 39 -28 85 -28 114 0 22 20 23 20 40 1 16 -18 16 -20
-6 -35 -15 -11 -18 -16 -8 -17 8 -1 22 -2 30 -3 9 0 14 -9 12 -19 -3 -16 0
-17 18 -7 12 7 32 9 43 6 23 -5 62 16 50 27 -3 4 3 7 15 7 12 0 22 5 22 10 0
6 -5 10 -11 10 -5 0 -7 4 -4 10 14 23 -32 79 -70 85 -5 0 -21 6 -35 12 -14 6
-51 16 -83 23 -55 11 -58 13 -43 29 9 10 13 20 10 23 -3 3 13 9 35 13 23 4 39
10 36 15 -6 9 10 7 40 -5z m230 -55 c3 -5 1 -10 -4 -10 -6 0 -11 5 -11 10 0 6
2 10 4 10 3 0 8 -4 11 -10z m-1308 -26 c-3 -3 -12 -4 -19 -1 -8 3 -5 6 6 6 11
1 17 -2 13 -5z m-43 -18 c-3 -8 -1 -24 5 -35 9 -17 8 -24 -9 -41 -12 -12 -26
-33 -33 -48 -11 -25 -12 -21 -15 42 -3 67 -3 68 -23 50 -15 -14 -19 -14 -14
-3 6 16 60 47 82 48 7 1 10 -5 7 -13z m1395 -14 c-10 -16 -10 -26 -1 -44 12
-24 15 -52 13 -103 -2 -30 -2 -30 -19 -9 -10 11 -23 19 -30 16 -15 -5 -15 5 2
71 14 52 36 100 44 93 2 -2 -2 -13 -9 -24z m-1479 -272 l14 -25 8 41 c5 23 18
50 28 59 19 17 21 17 38 2 23 -21 57 -22 74 -1 7 8 21 24 31 35 9 10 17 24 17
29 0 6 6 10 14 10 8 0 18 -4 21 -10 14 -22 63 -10 90 22 22 26 30 30 43 21 10
-6 16 -22 15 -38 -2 -27 -1 -27 42 -20 49 7 54 2 28 -27 -15 -16 -15 -18 0
-18 21 0 39 33 30 57 -5 14 -3 15 7 6 21 -19 -15 -120 -58 -164 -49 -48 -116
-62 -266 -57 -124 4 -170 20 -187 65 -15 40 -26 136 -20 179 4 29 7 17 11 -51
4 -49 13 -101 20 -115z m1527 168 c-3 -7 -5 -2 -5 12 0 14 2 19 5 13 2 -7 2
-19 0 -25z m3 -92 c0 -3 -4 -8 -10 -11 -5 -3 -10 -1 -10 4 0 6 5 11 10 11 6 0
10 -2 10 -4z m-1768 -516 c28 -52 29 -55 11 -67 -18 -14 -91 -37 -150 -47 -32
-5 -32 -5 -22 22 12 31 58 121 73 140 21 28 57 9 88 -48z m60 -103 c4 -9 12
-25 18 -34 5 -10 19 -35 30 -55 l20 -38 -40 2 c-22 1 -43 -2 -47 -5 -3 -4 8
-7 25 -7 17 0 34 -5 38 -11 4 -8 9 -7 15 2 8 11 12 10 24 -5 8 -11 15 -26 15
-33 0 -8 7 -25 16 -39 27 -40 27 -84 -1 -129 -13 -22 -42 -77 -65 -122 -44
-88 -58 -95 -79 -38 -7 19 -18 35 -25 35 -9 0 -6 -14 10 -47 27 -55 30 -90 10
-118 -7 -11 -25 -47 -38 -79 -23 -53 -29 -59 -58 -63 -21 -2 -41 3 -54 14 -16
13 -15 11 3 -10 29 -32 20 -36 -16 -7 -15 11 -28 18 -31 15 -3 -2 7 -14 22
-26 l27 -21 -33 -28 -33 -28 -30 27 c-21 19 -59 33 -130 49 -55 13 -112 28
-127 32 -24 8 -28 6 -28 -10 0 -22 10 -30 48 -34 16 -2 61 -14 100 -26 40 -11
77 -18 82 -15 11 7 60 -23 60 -36 0 -12 -47 -12 -54 0 -3 5 -23 12 -43 15 -21
4 -71 14 -110 23 -40 9 -75 14 -78 12 -3 -3 4 -24 15 -48 21 -43 20 -61 -6
-61 -8 0 -14 -5 -14 -10 0 -11 -50 -34 -57 -27 -8 9 30 204 48 246 l19 44 60
-6 c33 -3 60 -2 60 2 0 4 -20 21 -45 39 -47 33 -50 38 -36 61 7 11 18 6 55
-24 43 -35 46 -36 42 -14 -3 13 -5 29 -5 36 -1 7 -11 10 -25 7 -14 -2 -28 1
-32 7 -4 7 -1 10 7 7 8 -3 24 -1 37 3 41 15 141 -17 185 -59 20 -20 37 -31 37
-25 0 17 -78 83 -98 83 -10 0 -27 7 -38 15 -18 14 -17 15 11 9 55 -12 74 -23
110 -61 l36 -38 -26 41 c-14 23 -36 46 -48 51 -51 24 -119 45 -125 38 -4 -4
-1 -10 6 -12 6 -3 12 -9 12 -14 0 -14 -33 -10 -55 7 -17 13 -18 16 -5 24 8 5
10 10 5 10 -6 0 -16 -5 -22 -11 -18 -18 -10 43 10 71 l17 24 0 -39 c0 -63 17
-28 30 64 15 105 83 259 107 240 7 -7 16 -9 20 -6 3 4 -2 9 -11 13 -18 7 -22
34 -5 34 20 0 78 -51 73 -65 -3 -7 4 -18 15 -25 16 -8 21 -8 21 1 0 6 7 9 18
5 13 -5 12 -2 -4 12 -12 10 -25 29 -29 41 -5 16 -10 20 -15 11 -10 -16 -60 15
-60 38 0 12 9 14 51 9 28 -4 57 -11 63 -17 7 -5 17 -6 21 -2 5 4 5 -1 2 -11
-4 -11 -3 -16 3 -12 5 3 15 -5 22 -19 11 -25 28 -35 28 -17 0 5 8 7 19 4 10
-3 22 0 25 6 4 7 -1 11 -13 11 -12 0 -21 4 -21 10 0 5 7 7 15 4 8 -4 15 -1 15
5 0 6 -9 11 -20 11 -22 0 -44 34 -34 53 4 6 4 9 -1 5 -4 -4 -16 -3 -26 3 -22
11 -23 6 -9 -22 12 -22 12 -22 -29 -8 -17 6 -47 12 -66 13 -44 1 -47 18 -5 30
22 7 38 6 51 -2 15 -10 17 -9 13 3 -6 13 10 18 42 14 4 0 10 3 13 8 9 12 74
42 85 39 5 -1 13 -10 18 -19z m1023 -527 c3 -5 1 -10 -4 -10 -6 0 -11 5 -11
10 0 6 2 10 4 10 3 0 8 -4 11 -10z m-1480 -30 c3 -5 -1 -10 -9 -10 -8 0 -18 5
-21 10 -3 6 1 10 9 10 8 0 18 -4 21 -10z"/>
<path d="M1515 1663 c-31 -8 -37 -18 -10 -18 14 0 27 6 30 13 2 6 3 11 2 11
-1 -1 -11 -3 -22 -6z"/>
<path d="M920 796 c0 -5 105 -56 117 -56 5 0 18 -9 28 -20 22 -24 8 -26 -23
-4 -36 25 -25 2 13 -29 29 -23 38 -26 55 -17 21 11 21 11 -2 30 -13 11 -17 19
-10 20 19 0 14 18 -8 25 -11 3 -20 15 -20 26 0 11 -7 19 -17 19 -15 0 -16 -2
-4 -9 12 -8 10 -11 -11 -16 -17 -4 -40 0 -66 14 -41 21 -52 25 -52 17z"/>
<path d="M906 768 c10 -14 21 -24 23 -22 3 3 -6 15 -18 27 l-24 22 19 -27z"/>
<path d="M881 660 c0 -8 4 -22 9 -30 12 -18 12 -2 0 25 -6 13 -9 15 -9 5z"/>
<path d="M680 540 c0 -5 5 -10 11 -10 5 0 7 5 4 10 -3 6 -8 10 -11 10 -2 0 -4
-4 -4 -10z"/>
<path d="M975 410 c-3 -5 -1 -10 4 -10 6 0 11 5 11 10 0 6 -2 10 -4 10 -3 0
-8 -4 -11 -10z"/>
<path d="M960 360 c0 -21 16 -44 23 -33 4 6 0 19 -8 29 -11 15 -14 16 -15 4z"/>
<path d="M500 281 c0 -10 13 -15 158 -50 46 -11 96 -29 110 -39 50 -35 57 -34
17 1 -33 29 -59 40 -145 62 -58 14 -113 28 -122 31 -10 3 -18 1 -18 -5z"/>
<path d="M2804 1537 c-25 -22 -27 -27 -14 -41 9 -11 22 -15 37 -11 13 3 23 1
23 -5 0 -5 -8 -10 -19 -10 -14 0 -17 -6 -13 -26 2 -14 11 -28 18 -31 8 -3 11
-10 7 -17 -4 -7 -3 -8 5 -1 6 6 12 44 14 85 3 86 -9 99 -58 57z"/>
<path d="M1186 1394 c4 -44 15 -106 25 -139 10 -33 19 -68 19 -77 0 -10 5 -18
10 -18 12 0 13 -5 -6 55 -9 28 -19 95 -23 149 -4 68 -10 101 -19 104 -10 3
-12 -12 -6 -74z"/>
<path d="M1734 1381 c4 -5 -8 -12 -24 -16 -34 -8 -65 -47 -56 -70 3 -9 -1 -18
-9 -21 -38 -15 -4 -64 44 -64 11 0 26 -6 33 -13 7 -7 23 -16 36 -19 18 -5 22
-3 18 9 -4 11 -2 13 9 10 8 -4 17 -2 19 2 10 16 78 0 98 -22 15 -17 18 -18 14
-4 -3 11 0 17 9 17 18 0 19 12 3 28 -9 9 -9 12 0 12 7 0 12 7 12 16 0 8 4 12
10 9 16 -10 119 -18 144 -11 15 4 28 18 35 36 9 26 7 34 -12 57 -28 32 -84 58
-100 44 -7 -5 -37 -7 -67 -4 -71 6 -116 5 -160 -2 -26 -5 -31 -4 -20 4 12 9 9
11 -13 11 -16 0 -26 -4 -23 -9z"/>
<path d="M2725 1380 c3 -5 8 -10 11 -10 2 0 4 5 4 10 0 6 -5 10 -11 10 -5 0
-7 -4 -4 -10z"/>
<path d="M1236 1125 c4 -8 10 -12 15 -9 11 6 2 24 -11 24 -5 0 -7 -7 -4 -15z"/>
<path d="M1240 1078 c0 -19 2 -20 10 -8 13 19 13 30 0 30 -5 0 -10 -10 -10
-22z"/>
<path d="M2745 1066 c-2 -6 -6 -36 -9 -67 -10 -103 -35 -190 -86 -304 -15 -34
-18 -68 -18 -230 0 -160 -3 -202 -20 -264 -12 -41 -19 -78 -16 -83 3 -4 -2
-31 -11 -60 -8 -28 -15 -53 -15 -55 0 -2 97 -3 215 -3 l215 0 0 455 c0 468 1
461 -37 456 -6 -1 -34 32 -63 72 -48 71 -53 75 -101 84 -37 8 -52 7 -54 -1z
m245 -210 c0 -5 -7 -1 -15 10 -8 10 -14 24 -14 29 0 6 6 1 14 -9 8 -11 15 -24
15 -30z"/>
<path d="M2002 1028 c-9 -9 -159 -14 -205 -6 -16 3 -53 -3 -83 -13 -55 -18
-108 -20 -131 -6 -9 6 -11 3 -7 -7 3 -9 2 -16 -2 -16 -5 0 -15 -13 -22 -29
-11 -24 -20 -30 -50 -33 -30 -2 -36 -6 -34 -23 2 -10 11 -25 20 -32 19 -14 52
-17 52 -5 0 9 102 62 120 62 7 0 28 10 48 22 28 17 49 21 106 20 39 -1 104 6
144 14 68 15 79 15 140 0 37 -9 76 -16 87 -16 11 0 44 -9 73 -20 52 -20 52
-20 52 0 0 11 -4 20 -9 20 -5 0 -11 10 -14 21 -4 15 -11 20 -22 15 -12 -4 -18
0 -22 13 -5 19 -7 19 -48 3 -36 -13 -48 -14 -67 -4 -34 18 -115 31 -126 20z"/>
<path d="M1754 893 c-9 -6 -22 -9 -30 -6 -8 3 -14 0 -14 -6 0 -6 -3 -10 -7
-10 -45 7 -39 -39 9 -79 27 -23 41 -26 129 -30 95 -4 169 9 169 29 0 5 9 9 20
9 35 0 80 31 80 55 0 38 -40 47 -222 49 -77 1 -123 -3 -134 -11z"/>
<path d="M1384 857 c3 -18 5 -34 5 -36 1 -2 8 2 16 9 11 9 12 16 5 25 -5 6 -7
14 -4 17 2 3 -2 8 -10 11 -13 5 -15 0 -12 -26z"/>
<path d="M1403 779 c7 -16 14 -24 18 -18 4 8 8 7 12 -2 5 -13 8 -2 7 29 0 4
-11 10 -24 13 -22 6 -23 5 -13 -22z"/>
<path d="M1547 763 c-14 -13 -7 -35 9 -29 12 4 15 2 10 -9 -3 -8 -1 -15 5 -15
17 0 21 29 6 45 -17 17 -21 18 -30 8z"/>
<path d="M1514 749 c-3 -6 -2 -15 3 -20 5 -5 9 -1 9 11 0 23 -2 24 -12 9z"/>
<path d="M1597 720 c-3 -11 -1 -20 4 -20 5 0 9 9 9 20 0 11 -2 20 -4 20 -2 0
-6 -9 -9 -20z"/>
<path d="M2437 593 c-12 -11 -8 -23 8 -23 8 0 15 7 15 15 0 16 -12 20 -23 8z"/>
</g>
</svg>
